<svg width="320" height="45" viewBox="0 0 320 45" fill="none" xmlns="http://www.w3.org/2000/svg">
<g opacity="0.88">
<path d="M0 43.7139V7.71387H17.5364C22.0487 7.71387 25.4329 8.57105 27.689 10.2853C29.9794 11.9995 31.1245 14.2624 31.1245 17.0739C31.1245 18.9596 30.663 20.6053 29.7401 22.011C28.8171 23.3825 27.5523 24.4453 25.9457 25.1996C24.339 25.9539 22.4931 26.331 20.4078 26.331L21.3821 24.2224C23.6382 24.2224 25.638 24.5995 27.3814 25.3539C29.1248 26.0739 30.475 27.1539 31.4322 28.5939C32.4235 30.0339 32.9192 31.7995 32.9192 33.891C32.9192 36.9767 31.7056 39.3939 29.2786 41.1424C26.8516 42.8567 23.2793 43.7139 18.5619 43.7139H0ZM8.25543 37.4396H17.9466C20.1002 37.4396 21.724 37.0967 22.8178 36.411C23.9459 35.691 24.5099 34.5596 24.5099 33.0167C24.5099 31.5082 23.9459 30.3939 22.8178 29.6739C21.724 28.9195 20.1002 28.5424 17.9466 28.5424H7.64011V22.4739H16.5109C18.5277 22.4739 20.066 22.131 21.1257 21.4453C22.2196 20.7253 22.7665 19.6453 22.7665 18.2053C22.7665 16.7996 22.2196 15.7538 21.1257 15.0682C20.066 14.3482 18.5277 13.9882 16.5109 13.9882H8.25543V37.4396ZM51.7707 44.1253C48.8309 44.1253 46.2158 43.5081 43.9255 42.2739C41.6693 41.0396 39.8747 39.3595 38.5415 37.2339C37.2425 35.0739 36.593 32.6224 36.593 29.8796C36.593 27.1024 37.2425 24.651 38.5415 22.5253C39.8747 20.3653 41.6693 18.6853 43.9255 17.4853C46.2158 16.251 48.8309 15.6339 51.7707 15.6339C54.6764 15.6339 57.2744 16.251 59.5646 17.4853C61.855 18.6853 63.6497 20.3482 64.9486 22.4739C66.2477 24.5995 66.8971 27.0681 66.8971 29.8796C66.8971 32.6224 66.2477 35.0739 64.9486 37.2339C63.6497 39.3595 61.855 41.0396 59.5646 42.2739C57.2744 43.5081 54.6764 44.1253 51.7707 44.1253ZM51.7707 37.5424C53.1039 37.5424 54.3004 37.2339 55.36 36.6167C56.4198 35.9996 57.2572 35.1253 57.8725 33.9939C58.4878 32.8281 58.7955 31.4568 58.7955 29.8796C58.7955 28.2682 58.4878 26.8967 57.8725 25.7653C57.2572 24.6339 56.4198 23.7596 55.36 23.1424C54.3004 22.5253 53.1039 22.2167 51.7707 22.2167C50.4375 22.2167 49.2411 22.5253 48.1814 23.1424C47.1217 23.7596 46.2671 24.6339 45.6176 25.7653C45.0023 26.8967 44.6946 28.2682 44.6946 29.8796C44.6946 31.4568 45.0023 32.8281 45.6176 33.9939C46.2671 35.1253 47.1217 35.9996 48.1814 36.6167C49.2411 37.2339 50.4375 37.5424 51.7707 37.5424ZM83.5246 44.1253C80.2772 44.1253 77.7475 43.3024 75.9358 41.6567C74.124 39.9767 73.2182 37.491 73.2182 34.1996V9.9253H81.2172V34.0967C81.2172 35.2625 81.5249 36.171 82.1402 36.8224C82.7555 37.4396 83.593 37.7481 84.6527 37.7481C85.9174 37.7481 86.9942 37.4053 87.8831 36.7196L90.0367 42.3767C89.2163 42.9595 88.225 43.4053 87.0627 43.7139C85.9346 43.9881 84.7553 44.1253 83.5246 44.1253ZM68.9623 22.8339V16.6624H88.0882V22.8339H68.9623ZM111.448 43.7139V38.3139L110.935 37.131V27.4624C110.935 25.7482 110.405 24.411 109.346 23.451C108.32 22.491 106.731 22.011 104.577 22.011C103.107 22.011 101.654 22.2511 100.219 22.731C98.8171 23.1768 97.6206 23.7939 96.6293 24.5824L93.7578 18.9767C95.2619 17.9138 97.0737 17.091 99.1931 16.5082C101.312 15.9253 103.466 15.6339 105.654 15.6339C109.858 15.6339 113.123 16.6281 115.448 18.6167C117.772 20.6053 118.934 23.7081 118.934 27.9253V43.7139H111.448ZM103.039 44.1253C100.885 44.1253 99.0392 43.7653 97.501 43.0453C95.9627 42.291 94.7833 41.2796 93.9629 40.011C93.1425 38.7424 92.7323 37.3196 92.7323 35.7424C92.7323 34.0967 93.1254 32.6567 93.9116 31.4224C94.732 30.1882 96.0139 29.2281 97.7573 28.5424C99.5007 27.8224 101.774 27.4624 104.577 27.4624H111.91V32.1424H105.449C103.569 32.1424 102.27 32.451 101.552 33.0681C100.868 33.6853 100.526 34.4567 100.526 35.3824C100.526 36.411 100.919 37.2339 101.706 37.851C102.526 38.4338 103.637 38.7253 105.039 38.7253C106.372 38.7253 107.568 38.4167 108.628 37.7996C109.688 37.1481 110.457 36.2053 110.935 34.971L112.166 38.6739C111.585 40.4568 110.525 41.811 108.987 42.7367C107.448 43.6624 105.466 44.1253 103.039 44.1253ZM142.942 15.6339C145.128 15.6339 147.077 16.0796 148.787 16.971C150.53 17.8282 151.897 19.1653 152.889 20.9824C153.88 22.7653 154.376 25.0624 154.376 27.8739V43.7139H146.377V29.1081C146.377 26.8796 145.881 25.2339 144.89 24.171C143.932 23.1081 142.565 22.5767 140.788 22.5767C139.523 22.5767 138.378 22.851 137.352 23.3996C136.36 23.9139 135.574 24.7196 134.994 25.8167C134.446 26.9138 134.173 28.3196 134.173 30.0339V43.7139H126.174V16.0453H133.814V23.7082L132.379 21.3939C133.37 19.5424 134.789 18.1195 136.635 17.1253C138.48 16.1311 140.583 15.6339 142.942 15.6339Z" fill="#64B68A"/>
<path fill-rule="evenodd" clip-rule="evenodd" d="M177.155 45H180.092V40.9254C182.784 40.8716 188.481 40.2807 192.224 36.5174C197.17 31.542 196.608 23.1828 196.582 22.8291C196.527 22.1005 195.952 21.5217 195.228 21.4665C195.187 21.4636 194.811 21.4365 194.189 21.4365C191.728 21.4365 185.576 21.8667 181.616 25.8499C181.034 26.4349 180.531 27.0679 180.092 27.728V25.5345C181.536 24.1563 186.222 19.2169 186.222 13.1359C186.222 6.09991 179.946 0.588809 179.679 0.357432C179.129 -0.119144 178.314 -0.119144 177.763 0.357432C177.496 0.588809 171.221 6.09991 171.221 13.1359C171.221 18.9643 175.525 23.7433 177.155 25.3441V27.4779C176.757 26.9076 176.309 26.36 175.802 25.8494C171.841 21.8661 165.689 21.4359 163.229 21.4359C162.607 21.4359 162.23 21.4631 162.19 21.466C161.465 21.5208 160.889 22.1 160.835 22.8286C160.809 23.1818 160.247 31.541 165.194 36.5169C168.86 40.2026 174.399 40.8455 177.155 40.9209V45ZM183.693 27.9387C186.64 24.9762 191.325 24.4581 193.669 24.3975C193.608 26.7058 193.105 31.4542 190.147 34.4291C187.973 36.6146 184.854 37.4691 182.426 37.7916L188.246 31.9387C188.819 31.3619 188.819 30.4271 188.246 29.8504C187.672 29.2742 186.743 29.2737 186.17 29.8504L180.356 35.6954C180.681 33.2618 181.529 30.1148 183.693 27.9387ZM174.158 13.1364C174.158 8.94896 177.144 5.22129 178.724 3.54096C180.306 5.21635 183.285 8.93122 183.285 13.1364C183.285 16.2139 181.673 19.0422 180.191 20.9929V12.727C180.191 11.9115 179.533 11.2504 178.722 11.2504C177.912 11.2504 177.254 11.9115 177.254 12.727V21.0033C175.772 19.0571 174.158 16.2297 174.158 13.1364ZM173.725 27.9387C175.89 30.1148 176.739 33.2618 177.062 35.695L171.25 29.8499C170.675 29.2731 169.746 29.2731 169.173 29.8499C168.599 30.4266 168.599 31.3619 169.173 31.9382L174.993 37.7911C172.565 37.4685 169.446 36.6146 167.272 34.4291C164.327 31.4681 163.817 26.7093 163.753 24.3975C166.098 24.4587 170.78 24.9771 173.725 27.9387Z" fill="#64B68A"/>
<path d="M219.935 44.3312C217.166 44.3312 214.586 43.8854 212.192 42.9941C209.834 42.0683 207.783 40.7655 206.039 39.0855C204.296 37.4054 202.928 35.4341 201.937 33.1712C200.98 30.9083 200.501 28.4227 200.501 25.7141C200.501 23.0054 200.98 20.5198 201.937 18.2569C202.928 15.9941 204.296 14.0227 206.039 12.3426C207.817 10.6626 209.885 9.37688 212.244 8.48549C214.602 7.55978 217.183 7.09692 219.986 7.09692C223.098 7.09692 225.9 7.64554 228.396 8.74264C230.925 9.80554 233.045 11.3826 234.754 13.4741L229.421 18.4112C228.191 17.0055 226.823 15.9597 225.319 15.2741C223.815 14.5541 222.175 14.1941 220.397 14.1941C218.721 14.1941 217.183 14.4683 215.782 15.0169C214.381 15.5655 213.167 16.3541 212.141 17.3826C211.116 18.4112 210.312 19.6284 209.731 21.0341C209.184 22.4397 208.911 23.9998 208.911 25.7141C208.911 27.4283 209.184 28.9884 209.731 30.3941C210.312 31.7997 211.116 33.0169 212.141 34.0455C213.167 35.0741 214.381 35.8626 215.782 36.4112C217.183 36.9598 218.721 37.2341 220.397 37.2341C222.175 37.2341 223.815 36.8912 225.319 36.2055C226.823 35.4855 228.191 34.4055 229.421 32.9655L234.754 37.9026C233.045 39.9941 230.925 41.5884 228.396 42.6855C225.9 43.7826 223.08 44.3312 219.935 44.3312ZM256.571 43.7141V38.3141L256.058 37.1312V27.4626C256.058 25.7484 255.527 24.4112 254.468 23.4512C253.443 22.4912 251.853 22.0112 249.7 22.0112C248.229 22.0112 246.777 22.2513 245.341 22.7312C243.939 23.177 242.743 23.7941 241.752 24.5826L238.88 18.9769C240.384 17.914 242.195 17.0912 244.316 16.5084C246.435 15.9255 248.588 15.6341 250.776 15.6341C254.981 15.6341 258.245 16.6283 260.57 18.6169C262.894 20.6055 264.057 23.7083 264.057 27.9255V43.7141H256.571ZM248.161 44.1255C246.008 44.1255 244.162 43.7655 242.623 43.0455C241.085 42.2912 239.906 41.2798 239.085 40.0112C238.265 38.7426 237.855 37.3198 237.855 35.7426C237.855 34.0969 238.247 32.6569 239.034 31.4226C239.855 30.1883 241.136 29.2283 242.88 28.5426C244.623 27.8226 246.896 27.4626 249.7 27.4626H257.032V32.1426H250.571C248.691 32.1426 247.392 32.4512 246.674 33.0683C245.99 33.6855 245.649 34.4569 245.649 35.3826C245.649 36.4112 246.041 37.2341 246.828 37.8512C247.648 38.434 248.759 38.7255 250.161 38.7255C251.494 38.7255 252.69 38.4169 253.75 37.7998C254.809 37.1483 255.578 36.2055 256.058 34.9712L257.288 38.6741C256.706 40.457 255.648 41.8112 254.109 42.7369C252.571 43.6626 250.588 44.1255 248.161 44.1255ZM271.296 43.7141V16.0455H278.936V23.8626L277.859 21.5998C278.679 19.6455 279.996 18.1712 281.807 17.1769C283.62 16.1484 285.825 15.6341 288.422 15.6341V23.0398C288.081 23.0054 287.773 22.9883 287.499 22.9883C287.226 22.954 286.935 22.9369 286.627 22.9369C284.44 22.9369 282.662 23.5712 281.295 24.8398C279.961 26.0741 279.295 28.0112 279.295 30.6512V43.7141H271.296ZM306.668 44.1255C303.524 44.1255 300.755 43.5083 298.362 42.2741C296.003 41.0398 294.175 39.3597 292.875 37.2341C291.577 35.0741 290.927 32.6226 290.927 29.8798C290.927 27.1026 291.56 24.6512 292.824 22.5255C294.124 20.3655 295.884 18.6855 298.105 17.4855C300.328 16.2512 302.841 15.6341 305.643 15.6341C308.344 15.6341 310.771 16.2169 312.924 17.3826C315.112 18.5141 316.839 20.1598 318.103 22.3198C319.368 24.4454 320 26.9998 320 29.9826C320 30.2912 319.984 30.6512 319.949 31.0626C319.916 31.4397 319.881 31.7997 319.846 32.1426H297.439V27.4626H315.642L312.565 28.8512C312.565 27.4112 312.275 26.1598 311.694 25.0969C311.113 24.034 310.309 23.2112 309.284 22.6283C308.258 22.0112 307.062 21.7026 305.694 21.7026C304.328 21.7026 303.114 22.0112 302.054 22.6283C301.028 23.2112 300.226 24.0512 299.644 25.1483C299.063 26.2112 298.772 27.4797 298.772 28.9541V30.1883C298.772 31.6969 299.098 33.034 299.746 34.1998C300.431 35.3312 301.37 36.2055 302.566 36.8226C303.797 37.4054 305.233 37.6969 306.874 37.6969C308.344 37.6969 309.626 37.4741 310.719 37.0283C311.847 36.5826 312.873 35.914 313.796 35.0226L318.052 39.6512C316.788 41.0912 315.198 42.2055 313.283 42.9941C311.369 43.7484 309.164 44.1255 306.668 44.1255Z" fill="#64B68A"/>
</g>
</svg>
